<svg width="26" height="24" viewBox="0 0 26 24" fill="none" xmlns="http://www.w3.org/2000/svg">
<g filter="url(#filter0_b_28_500)">
<path d="M7 1C3.6868 1 1 3.73373 1 7.10648C1 9.8291 2.05 16.2909 12.3856 22.8229C12.5707 22.9388 12.7833 23 13 23C13.2167 23 13.4293 22.9388 13.6144 22.8229C23.95 16.2909 25 9.8291 25 7.10648C25 3.73373 22.3132 1 19 1C15.6868 1 13 4.70089 13 4.70089C13 4.70089 10.3132 1 7 1Z" fill="white" fill-opacity="0.6"/>
<path d="M7 1C3.6868 1 1 3.73373 1 7.10648C1 9.8291 2.05 16.2909 12.3856 22.8229C12.5707 22.9388 12.7833 23 13 23C13.2167 23 13.4293 22.9388 13.6144 22.8229C23.95 16.2909 25 9.8291 25 7.10648C25 3.73373 22.3132 1 19 1C15.6868 1 13 4.70089 13 4.70089C13 4.70089 10.3132 1 7 1Z" stroke="#F59256" stroke-width="2" stroke-linecap="round" stroke-linejoin="round"/>
</g>
<defs>
<filter id="filter0_b_28_500" x="-4" y="-4" width="34" height="32" filterUnits="userSpaceOnUse" color-interpolation-filters="sRGB">
<feFlood flood-opacity="0" result="BackgroundImageFix"/>
<feGaussianBlur in="BackgroundImageFix" stdDeviation="2"/>
<feComposite in2="SourceAlpha" operator="in" result="effect1_backgroundBlur_28_500"/>
<feBlend mode="normal" in="SourceGraphic" in2="effect1_backgroundBlur_28_500" result="shape"/>
</filter>
</defs>
</svg>
