<svg width="14" height="14" viewBox="0 0 14 14" fill="none" xmlns="http://www.w3.org/2000/svg">
<path d="M3.0522 11.4687C2.97994 11.4686 2.9085 11.4534 2.84241 11.4242C2.77633 11.395 2.71705 11.3523 2.66835 11.2989C2.61876 11.246 2.58093 11.1832 2.55732 11.1146C2.53371 11.046 2.52487 10.9732 2.53137 10.901L2.65897 9.49787L8.55376 3.60516L10.3959 5.44683L4.50272 11.339L3.0996 11.4666C3.08384 11.4681 3.06802 11.4688 3.0522 11.4687V11.4687ZM10.7637 5.0786L8.92199 3.23693L10.0267 2.13225C10.0751 2.08382 10.1325 2.0454 10.1957 2.01919C10.2589 1.99298 10.3267 1.97949 10.3952 1.97949C10.4636 1.97949 10.5314 1.99298 10.5946 2.01919C10.6578 2.0454 10.7153 2.08382 10.7637 2.13225L11.8683 3.23693C11.9168 3.2853 11.9552 3.34275 11.9814 3.40597C12.0076 3.4692 12.0211 3.53698 12.0211 3.60542C12.0211 3.67387 12.0076 3.74164 11.9814 3.80487C11.9552 3.8681 11.9168 3.92554 11.8683 3.97391L10.7642 5.07808L10.7637 5.0786V5.0786Z" fill="#F59256"/>
</svg>
